<?xml version="1.0" encoding="UTF-8" standalone="no"?>
<svg
   version="1.1"
   width="360"
   height="357"
   viewBox="0 0 360 357"
   id="svg4"
   xmlns="http://www.w3.org/2000/svg"
   xmlns:svg="http://www.w3.org/2000/svg">
  <defs
     id="defs4" />
  <svg
     xml:space="preserve"
     width="2000"
     height="357"
     data-version="2"
     data-id="lg_HI6JwgSQKMbMQu4Upt"
     viewBox="0 0 360 357"
     x="0"
     y="0"
     version="1.1"
     id="svg3"
     transform="translate(820)"><rect
       width="100%"
       height="100%"
       fill="transparent"
       id="rect1"
       x="-819.84851"
       y="1.8939394"
       style="fill:none" /><path
       fill="#b5c1de"
       d="m -639.84848,5.5899394 -96.461,28.3229996 -65.831,75.978001 -14.308,99.507 41.76,91.45 84.575,54.35 h 100.53 l 84.574,-54.35 41.761,-91.45 -14.308,-99.507 -65.83,-75.978001 z"
       id="path1" /><path
       fill="#0074d9"
       d="m -569.12548,197.80094 c 7.477,-3.852 14.354,-7.82 20.484,-11.86 22.17,-14.606 32.026,-28.397 28.515,-39.885 -2.29,-7.503 -9.783,-12.618 -22.243,-15.209 -3.29,-0.692 -6.917,-1.179 -10.814,-1.503 a 15.861,15.861 0 0 0 -19.326,-9.192 15.802,15.802 0 0 0 -10.21,9.654 c -4.835,0.453 -9.84,1.054 -14.994,1.818 2.156,-39.542001 -3.692,-72.216001 -21.411,-75.903001 -17.242,-3.585 -35.117,22.464 -48.756,58.050001 -15.822,-9.11 -30.388,-15.362001 -42.133,-17.787001 -12.475,-2.601 -21.377,-0.907 -26.471,5.065001 -5.153,6.045 -5.342,15.338 -0.697,27.378 -4.936,6.64 -3.97,16.064 2.412,21.51 a 15.768,15.768 0 0 0 11.69,3.739 245.454,245.454 0 0 0 10.89,14.366 c -31.837,16.377 -53.886,35.542 -48.958,51.66 2.278,7.498 9.77,12.61 22.24,15.198 11.942,2.49 28.153,2.532 46.71,0.37 -0.88,35.545 5.331,63.778 21.742,67.209 9.374,1.938 18.916,-4.86 27.863,-17.173 0.803,0.324 1.63,0.583 2.505,0.77 a 15.856,15.856 0 0 0 18.753,-12.307 15.804,15.804 0 0 0 -5.957,-15.859 245.677,245.677 0 0 0 4.788,-11.413 c 19.29,12.087 37.268,20.375 51.228,23.28 h 0.01 c 12.46,2.59 21.37,0.88 26.466,-5.081 10.939,-12.812 -1.648,-39.164 -24.326,-66.895 m -14.063,-58.457 c 0.052,0.202 0.1,0.412 0.145,0.619 2.575,8.369 11.444,13.094 19.818,10.537 a 15.833,15.833 0 0 0 10.798,-11.57 c 2.892,0.295 5.62,0.691 8.126,1.21 8.578,1.784 13.936,4.862 15.102,8.692 1.593,5.2 -4.05,15.597 -24.65,29.186 -6.402,4.218 -13.657,8.358 -21.577,12.346 -7.773,-8.882 -16.45,-17.802 -25.603,-26.355 a 381.044,381.044 0 0 0 2.635,-22.72 c 5.241,-0.816 10.327,-1.476 15.206,-1.945 m -48.4,73.156 a 395.69,395.69 0 0 1 -16.168,4.594 443.925,443.925 0 0 1 -13.004,-10.64 407.36,407.36 0 0 1 -17.644,-15.987 413.593,413.593 0 0 1 3.29,-17.688 408.568,408.568 0 0 1 2.633,-11.827 402.872,402.872 0 0 1 22.787,-7.71 417.683,417.683 0 0 1 16.172,-4.59 424.597,424.597 0 0 1 13.004,10.657 441.829,441.829 0 0 1 9.371,8.257 407.834,407.834 0 0 1 -3.303,17.841 400.17,400.17 0 0 1 -5.586,23.388 391.285,391.285 0 0 1 -11.553,3.705 m 8.378,7.327 a 341.574,341.574 0 0 1 -4.005,12.302 333.46,333.46 0 0 1 -11.025,-7.796 517.648,517.648 0 0 0 9.431,-2.741 c 1.873,-0.575 3.752,-1.176 5.6,-1.765 m -36.182,0.12 c -7.863,1.782 -15.545,3.267 -22.909,4.433 a 325.859,325.859 0 0 1 2.216,-22.46 397.366,397.366 0 0 0 13.167,11.739 c 2.5,2.132 5.01,4.236 7.526,6.288 m -27.233,-37.628 a 317.668,317.668 0 0 1 -10.428,-11.172 336.46,336.46 0 0 1 13.884,-6.04 199.57,199.57 0 0 0 -1.235,5.737 373.473,373.473 0 0 0 -2.22,11.475 m 16.97,-32.472 a 350.992,350.992 0 0 1 6.708,-22.059 c 6.504,4.12 13.162,8.68 19.893,13.634 a 411.2,411.2 0 0 0 -9.418,2.749 411.197,411.197 0 0 0 -17.182,5.676 m 47.756,-4.031 a 356.048,356.048 0 0 1 13.916,-2.889 335.687,335.687 0 0 1 -1.516,13.398 239.593,239.593 0 0 0 -4.873,-4.221 380.748,380.748 0 0 0 -7.527,-6.288 m 19.049,29.496 a 341.56,341.56 0 0 1 18.626,19.315 350.585,350.585 0 0 1 -25.036,10.359 386.176,386.176 0 0 0 4.091,-17.642 426.584,426.584 0 0 0 2.319,-12.032 m -18.209,-110.302001 c 9.206,1.915 16.268,27.316 13.815,68.172001 a 372.786,372.786 0 0 0 -24.137,5.148 359.117,359.117 0 0 0 -28.3,-19.647 c 13.775,-36.301001 29.686,-55.526001 38.622,-53.673001 m -93.068,84.898001 a 15.843,15.843 0 0 0 -15.016,-27.163 c -2.705,-7.998 -2.208,-13.094 -0.12,-15.532 2.591,-3.031 8.742,-3.728 17.31,-1.943 11.23,2.332 25.357,8.493 40.773,17.517 a 372.556,372.556 0 0 0 -9.32,31.111 360.177,360.177 0 0 0 -22.947,9.843 233.041,233.041 0 0 1 -10.68,-13.833 m -22.853,75.717 c -8.576,-1.783 -13.934,-4.874 -15.102,-8.706 -2.573,-8.402 13.77,-25.043 46.18,-41.48 a 337.89,337.89 0 0 0 17.408,18.44 353.746,353.746 0 0 0 -3.311,31.844 c -18.087,2.213 -33.78,2.26 -45.175,-0.098 m 100.752,29.09 c -7.614,-0.316 -14.563,4.897 -16.156,12.6 a 15.817,15.817 0 0 0 2.326,12.02 c -7.192,10 -13.786,14.824 -18.46,13.855 -8.519,-1.772 -15.188,-23.634 -14.208,-59.184 a 358.599,358.599 0 0 0 32.816,-6.588 378.484,378.484 0 0 0 19.328,13.85 243.907,243.907 0 0 1 -5.646,13.448 m 84.202,3.822 c -2.593,3.044 -8.731,3.736 -17.315,1.951 -13.38,-2.785 -30.873,-10.99 -49.776,-23.02 a 354.03,354.03 0 0 0 6.827,-21.31 c 12.24,-4.312 23.844,-9.048 34.47,-14.08 23.164,27.995 31.504,49.772 25.794,56.46"
       id="path2" /><path
       fill="#0074d9"
       d="m -631.67248,170.03994 a 15.856,15.856 0 0 0 -22.36,1.759 15.856,15.856 0 0 0 1.77,22.37 15.849,15.849 0 0 0 22.355,-1.775 15.843,15.843 0 0 0 -1.765,-22.354"
       id="path3" /></svg>
</svg>
