<svg xmlns="http://www.w3.org/2000/svg" version="1.1" xmlns:xlink="http://www.w3.org/1999/xlink" width="2000" height="1500" viewBox="0 0 2000 1500"><rect width="2000" height="1500" x="0" y="0" id="background" stroke="transparent" fill="#a1b0f6"></rect><svg xml:space="preserve" width="1500" height="1125" data-version="2" data-id="lg_HI6JwgSQKMbMQu4Upt" viewBox="0 0 624 168" x="250" y="187.5"><rect width="100%" height="100%" fill="transparent"></rect><path fill="#223fc0" d="M174.046 102.577h-9.28v-68.21q0-4.99 1.45-8.3 1.45-3.3 3.89-5.22 2.44-1.91 5.45-2.78 3.02-.87 6.03-.87 5.11.12 11.08.23 5.98.12 12.3.29 6.32.18 12.35.64v7.31h-33.52q-4.64 0-7.19 2.55-2.56 2.55-2.56 7.54v22.16l38.17.58v7.07l-38.17.58z"></path><rect width="52.55" height="85.38" x="-26.27" y="-42.69" fill="none" rx="0" ry="0" transform="translate(191.54 60.39)"></rect><path fill="#223fc0" d="M261.396 103.267q-8.23 0-14.44-1.56-6.21-1.57-10.32-5.98-4.12-4.41-6.15-12.99-2.03-8.58-2.03-22.5t2.09-22.57q2.08-8.64 6.26-13.22t10.32-6.26q6.15-1.69 14.27-1.69 8.35 0 14.56 1.69 6.21 1.68 10.32 6.26 4.12 4.58 6.09 13.22 1.98 8.65 1.98 22.57t-2.03 22.5q-2.03 8.58-6.15 12.99-4.12 4.41-10.27 5.98-6.15 1.56-14.5 1.56m0-8.23q6.5 0 11.02-1.28 4.53-1.28 7.37-4.93 2.84-3.65 4.12-10.5 1.27-6.84 1.27-18.09 0-11.72-1.33-18.8-1.34-7.07-4.18-10.67-2.84-3.59-7.31-4.75-4.46-1.16-10.96-1.16-6.03 0-10.5 1.16-4.46 1.16-7.42 4.75-2.96 3.6-4.41 10.67-1.45 7.08-1.45 18.8 0 11.25 1.22 18.09 1.22 6.85 4 10.5 2.79 3.65 7.37 4.93 4.58 1.28 11.19 1.28"></path><rect width="65.89" height="86.77" x="-32.95" y="-43.38" fill="none" rx="0" ry="0" transform="translate(261.9 60.38)"></rect><path fill="#223fc0" d="M319.396 102.577h-9.28v-85.38h33.64q4.18 0 8.12.99 3.95.98 7.14 3.65 3.19 2.67 5.04 7.6 1.86 4.93 1.86 12.93 0 6.96-1.51 11.43-1.51 4.46-3.94 7.07-2.44 2.61-5.28 3.83-2.84 1.22-5.51 1.68l17.51 36.2h-9.39l-16.59-34.92q-1.86 0-4.64-.12-2.78-.11-5.92-.11-3.13 0-6.09-.12-2.95-.11-5.16-.11zm0-77.03v34.57h22.97q3.02 0 5.57-.7 2.55-.69 4.52-2.61 1.97-1.91 3.13-5.39 1.16-3.48 1.16-9.05 0-5.33-1.16-8.64-1.16-3.31-3.19-5.1-2.03-1.8-4.58-2.44-2.55-.64-5.45-.64z"></path><rect width="57.07" height="85.38" x="-28.54" y="-42.69" fill="none" rx="0" ry="0" transform="translate(339.15 60.39)"></rect><path fill="#223fc0" d="M404.886 103.267q-2.55 0-6.09-.17-3.53-.18-7.25-.47-3.71-.29-7.01-.63-3.31-.35-5.51-.82v-7.07q2.9.23 7.07.46 4.18.23 8.99.35 4.82.12 9.46.12 5.22 0 9.39-1.05 4.18-1.04 6.67-3.83 2.5-2.78 2.5-8v-5.8q0-5.92-3.02-8.99-3.02-3.07-9.74-3.07h-9.17q-10.55 0-16.53-4.64-5.97-4.64-5.97-16.01v-4.87q0-12.07 6.49-17.17 6.5-5.11 18.33-5.11 3.71 0 8.35.41t8.99.93q4.35.52 7.25 1.1v7.08q-5.1-.47-11.54-.82-6.44-.34-12.12-.34-5.22 0-9.05 1.21-3.83 1.22-5.86 4.3-2.03 3.07-2.03 8.75v3.95q0 7.07 3.72 9.74 3.71 2.67 10.32 2.67h9.86q7.08 0 11.6 2.55t6.73 7.02q2.2 4.47 2.2 10.27v6.61q0 8.58-3.65 13.22-3.66 4.64-9.75 6.38-6.09 1.74-13.63 1.74"></path><rect width="53.24" height="86.77" x="-26.62" y="-43.38" fill="none" rx="0" ry="0" transform="translate(405.8 60.38)"></rect><path fill="#223fc0" d="M456.976 102.577h-9.28v-85.38h9.28z"></path><rect width="9.28" height="85.38" x="-4.64" y="-42.69" fill="none" rx="0" ry="0" transform="translate(452.84 60.39)"></rect><path fill="#223fc0" d="M481.446 102.577h-8.93l9.75-85.38h9.39l22.74 73.78 22.27-73.78h9.51l9.98 85.38h-8.93l-8.59-74.82 1.51.23-21.58 74.59h-8.46l-22.16-74.48 1.74-.23z"></path><rect width="83.64" height="85.38" x="-41.82" y="-42.69" fill="none" rx="0" ry="0" transform="translate(514.84 60.39)"></rect><path fill="#fff" d="M102.108 72.747c3.728-1.92 7.157-3.898 10.213-5.913 11.054-7.282 15.968-14.158 14.218-19.886-1.142-3.741-4.878-6.291-11.09-7.583-1.641-.345-3.45-.588-5.392-.75a7.908 7.908 0 0 0-9.636-4.583 7.879 7.879 0 0 0-5.091 4.813c-2.41.227-4.906.526-7.476.907C88.93 20.037 86.014 3.746 77.18 1.908 68.583.12 59.67 13.108 52.87 30.851c-7.888-4.542-15.15-7.66-21.006-8.869-6.22-1.297-10.66-.452-13.199 2.526-2.57 3.014-2.663 7.647-.347 13.65-2.461 3.311-1.98 8.01 1.202 10.725a7.862 7.862 0 0 0 5.829 1.864 122.381 122.381 0 0 0 5.43 7.163C14.903 66.075 3.91 75.63 6.367 83.667c1.135 3.739 4.871 6.287 11.088 7.578 5.954 1.241 14.037 1.262 23.289.185-.438 17.722 2.659 31.798 10.84 33.509 4.675.966 9.432-2.424 13.893-8.562.4.161.812.29 1.249.383a7.906 7.906 0 0 0 9.35-6.136 7.88 7.88 0 0 0-2.97-7.907 122.492 122.492 0 0 0 2.387-5.69c9.618 6.026 18.582 10.159 25.542 11.607h.005c6.212 1.291 10.655.439 13.196-2.534 5.454-6.387-.822-19.526-12.129-33.353m-7.012-29.146c.026.1.05.205.073.308 1.284 4.173 5.705 6.53 9.88 5.254a7.894 7.894 0 0 0 5.385-5.77c1.441.148 2.802.346 4.05.604 4.278.89 6.95 2.425 7.53 4.334.795 2.593-2.018 7.777-12.29 14.552-3.192 2.103-6.809 4.168-10.758 6.156-3.875-4.429-8.201-8.876-12.765-13.14a189.985 189.985 0 0 0 1.314-11.328c2.613-.407 5.149-.737 7.581-.97M70.964 80.076a197.288 197.288 0 0 1-8.06 2.29 221.337 221.337 0 0 1-6.484-5.305 203.106 203.106 0 0 1-8.797-7.97 206.214 206.214 0 0 1 1.64-8.82c.415-2.016.86-3.981 1.313-5.897a200.868 200.868 0 0 1 11.361-3.844A208.253 208.253 0 0 1 70 48.242a211.7 211.7 0 0 1 6.484 5.313 220.292 220.292 0 0 1 4.672 4.117 203.342 203.342 0 0 1-1.647 8.896 199.521 199.521 0 0 1-2.785 11.66 195.091 195.091 0 0 1-5.76 1.848m4.178 3.653a170.306 170.306 0 0 1-1.997 6.134 166.26 166.26 0 0 1-5.497-3.887 257.03 257.03 0 0 0 4.702-1.367c.934-.287 1.87-.587 2.792-.88m-18.04.06c-3.92.888-7.751 1.628-11.422 2.21.22-3.513.581-7.254 1.104-11.199a198.123 198.123 0 0 0 6.565 5.853 223.265 223.265 0 0 0 3.753 3.136M43.524 65.028a158.386 158.386 0 0 1-5.2-5.57 167.756 167.756 0 0 1 6.923-3.012 99.503 99.503 0 0 0-.616 2.86 186.21 186.21 0 0 0-1.107 5.722m8.461-16.19a175.001 175.001 0 0 1 3.344-10.999 172.81 172.81 0 0 1 9.919 6.798c-1.56.439-3.124.887-4.696 1.37a205.019 205.019 0 0 0-8.567 2.83m23.81-2.01a174.43 174.43 0 0 1 6.939-1.44 167.37 167.37 0 0 1-.756 6.68 119.46 119.46 0 0 0-2.43-2.105 189.838 189.838 0 0 0-3.753-3.135m9.499 14.707a170.3 170.3 0 0 1 9.287 9.63 174.799 174.799 0 0 1-12.483 5.165 192.544 192.544 0 0 0 2.04-8.796c.417-1.988.796-3.997 1.156-6M76.215 6.539c4.59.955 8.111 13.62 6.888 33.99a185.868 185.868 0 0 0-12.034 2.567 179.053 179.053 0 0 0-14.11-9.796c6.868-18.1 14.8-27.685 19.256-26.761m-46.403 42.33a7.9 7.9 0 0 0-7.487-13.544c-1.348-3.987-1.1-6.528-.06-7.744 1.293-1.511 4.36-1.859 8.631-.969 5.599 1.163 12.643 4.235 20.33 8.734a185.753 185.753 0 0 0-4.647 15.512 179.58 179.58 0 0 0-11.442 4.907 116.192 116.192 0 0 1-5.325-6.896M18.418 86.62c-4.276-.889-6.948-2.43-7.53-4.34-1.283-4.19 6.866-12.487 23.025-20.682a168.469 168.469 0 0 0 8.68 9.194 176.375 176.375 0 0 0-1.652 15.877c-9.018 1.103-16.842 1.127-22.523-.049m50.234 14.504c-3.797-.157-7.261 2.442-8.056 6.282a7.886 7.886 0 0 0 1.16 5.993c-3.586 4.986-6.874 7.392-9.204 6.909-4.247-.884-7.572-11.784-7.084-29.509a178.794 178.794 0 0 0 16.362-3.285 188.709 188.709 0 0 0 9.637 6.906 121.61 121.61 0 0 1-2.815 6.704m41.982 1.906c-1.293 1.518-4.353 1.863-8.633.973-6.671-1.39-15.393-5.48-24.818-11.478A176.517 176.517 0 0 0 80.587 81.9c6.102-2.15 11.888-4.511 17.186-7.02 11.55 13.958 15.708 24.816 12.861 28.15"></path><path fill="#fff" d="M70.923 58.906a7.906 7.906 0 0 0-11.148.877 7.906 7.906 0 0 0 .882 11.153 7.902 7.902 0 0 0 11.145-.884 7.9 7.9 0 0 0-.88-11.146m99.774 96.941v2.2h-11.93v-21.42h11.93v2.2h-9.44v6.93h8.89v2.17h-8.89v7.92z"></path><rect width="11.93" height="21.42" x="-5.96" y="-10.71" fill="none" rx="0" ry="0" transform="translate(165.23 147.84)"></rect><path fill="#fff" d="m173.076 158.047 5.82-8.22-5.55-7.83h2.78l4.23 6.18 4.22-6.18h2.76l-5.56 7.83 5.86 8.22h-2.78l-4.5-6.55-4.52 6.55z"></path><rect width="14.56" height="16.05" x="-7.28" y="-8.03" fill="none" rx="0" ry="0" transform="translate(180.86 150.52)"></rect><path fill="#fff" d="M198.315 141.697q3.01 0 4.79 2.07 1.79 2.06 1.79 6.21 0 2.74-.82 4.6-.82 1.86-2.31 2.81-1.48.95-3.51.95-1.27 0-2.24-.33-.96-.34-1.65-.91-.69-.57-1.14-1.25h-.18q.04.57.11 1.38.07.81.07 1.41v6.59h-2.45v-23.23h2.01l.32 2.37h.12q.46-.73 1.14-1.34.67-.61 1.65-.97.97-.36 2.3-.36m-.42 2.05q-1.67 0-2.69.65-1.02.64-1.49 1.92-.47 1.29-.49 3.22v.47q0 2.03.44 3.44.45 1.41 1.48 2.14 1.03.73 2.78.73 1.49 0 2.49-.8.99-.81 1.48-2.25.5-1.45.5-3.32 0-2.84-1.11-4.52-1.11-1.68-3.39-1.68"></path><rect width="14.12" height="23.53" x="-7.06" y="-11.77" fill="none" rx="0" ry="0" transform="translate(198.34 153.96)"></rect><path fill="#fff" d="M215.315 141.697q2.05 0 3.51.91 1.47.91 2.24 2.54.78 1.64.78 3.82v1.51h-11.09q.04 2.82 1.41 4.3 1.36 1.48 3.83 1.48 1.53 0 2.7-.27 1.17-.28 2.43-.83v2.14q-1.22.55-2.41.79-1.19.25-2.82.25-2.31 0-4.03-.94-1.73-.95-2.68-2.78-.95-1.83-.95-4.48 0-2.59.87-4.49.87-1.9 2.46-2.92 1.59-1.03 3.75-1.03m-.03 2q-1.95 0-3.11 1.27t-1.38 3.56h8.5q-.02-1.44-.45-2.53-.43-1.09-1.31-1.7-.88-.6-2.25-.6"></path><rect width="13.61" height="16.64" x="-6.8" y="-8.32" fill="none" rx="0" ry="0" transform="translate(215.54 150.52)"></rect><path fill="#fff" d="M233.265 141.697q.49 0 1.01.05.53.06.94.14l-.31 2.26q-.39-.1-.87-.16-.49-.06-.91-.06-.97 0-1.83.39-.85.39-1.5 1.11-.64.73-1.01 1.74-.36 1.02-.36 2.27v8.61h-2.45v-16.05h2.02l.26 2.95h.11q.49-.89 1.2-1.63.7-.74 1.63-1.18.93-.44 2.07-.44"></path><rect width="9.24" height="16.35" x="-4.62" y="-8.18" fill="none" rx="0" ry="0" transform="translate(231.1 150.37)"></rect><path fill="#fff" d="M243.425 156.347q.6 0 1.23-.1t1.02-.25v1.89q-.42.19-1.18.32-.75.13-1.47.13-1.27 0-2.31-.44-1.04-.45-1.67-1.52-.62-1.07-.62-2.96v-9.52h-2.28v-1.19l2.29-.95.97-3.48h1.47v3.72h4.7v1.9h-4.7v9.45q0 1.51.69 2.25.7.75 1.86.75"></path><rect width="9.53" height="20.06" x="-4.76" y="-10.03" fill="none" rx="0" ry="0" transform="translate(241.41 148.8)"></rect><path fill="#fff" d="M259.315 153.657q0 1.53-.77 2.58t-2.2 1.58q-1.43.52-3.4.52-1.69 0-2.92-.26t-2.15-.75v-2.24q.98.48 2.34.88 1.36.4 2.79.4 2.08 0 3.01-.68.94-.67.94-1.83 0-.66-.37-1.16-.38-.51-1.26-.98-.87-.48-2.43-1.05-1.54-.59-2.66-1.17t-1.72-1.41q-.61-.84-.61-2.17 0-2.03 1.65-3.13 1.64-1.09 4.32-1.09 1.45 0 2.72.29 1.27.28 2.37.77l-.82 1.95q-1-.43-2.13-.72-1.12-.29-2.3-.29-1.68 0-2.58.55-.9.56-.9 1.53 0 .74.41 1.23.42.48 1.34.9.93.43 2.44 1 1.51.56 2.6 1.15 1.1.59 1.7 1.44.59.84.59 2.16"></path><rect width="11.44" height="16.64" x="-5.72" y="-8.32" fill="none" rx="0" ry="0" transform="translate(254.1 150.52)"></rect><path fill="#fff" d="M277.196 141.697q2.06 0 3.52.91 1.47.91 2.24 2.54.78 1.64.78 3.82v1.51h-11.09q.04 2.82 1.41 4.3 1.36 1.48 3.83 1.48 1.53 0 2.7-.27 1.17-.28 2.43-.83v2.14q-1.22.55-2.41.79-1.19.25-2.82.25-2.31 0-4.04-.94-1.72-.95-2.67-2.78-.95-1.83-.95-4.48 0-2.59.87-4.49.87-1.9 2.46-2.92 1.59-1.03 3.74-1.03m-.02 2q-1.95 0-3.11 1.27t-1.38 3.56h8.5q-.02-1.44-.45-2.53-.43-1.09-1.31-1.7-.88-.6-2.25-.6"></path><rect width="13.61" height="16.64" x="-6.8" y="-8.32" fill="none" rx="0" ry="0" transform="translate(277.43 150.52)"></rect><path fill="#fff" d="M295.465 141.697q2.86 0 4.32 1.4 1.47 1.4 1.47 4.49v10.46h-2.4v-10.3q0-2-.92-3t-2.81-1q-2.66 0-3.75 1.51-1.08 1.51-1.08 4.38v8.41h-2.43v-16.05h1.96l.37 2.31h.13q.51-.85 1.3-1.43t1.78-.88q.98-.3 2.06-.3"></path><rect width="13.39" height="16.35" x="-6.7" y="-8.18" fill="none" rx="0" ry="0" transform="translate(295.06 150.37)"></rect><path fill="#fff" d="M316.505 135.257v22.79h-2.45v-22.79z"></path><rect width="2.45" height="22.79" x="-1.23" y="-11.39" fill="none" rx="0" ry="0" transform="translate(315.78 147.15)"></rect><path fill="#fff" d="M335.476 149.987q0 1.98-.52 3.53-.51 1.56-1.48 2.63-.96 1.07-2.33 1.63-1.37.56-3.1.56-1.61 0-2.95-.56t-2.32-1.63q-.97-1.07-1.51-2.63-.53-1.55-.53-3.53 0-2.63.89-4.49.9-1.85 2.56-2.82 1.66-.98 3.96-.98 2.2 0 3.85.98 1.65.99 2.56 2.84.92 1.85.92 4.47m-12.22 0q0 1.94.51 3.36t1.58 2.2q1.07.77 2.76.77 1.67 0 2.74-.77 1.08-.78 1.59-2.2.52-1.42.52-3.36 0-1.92-.52-3.31-.51-1.4-1.58-2.16-1.07-.77-2.77-.77-2.5 0-3.67 1.66-1.16 1.65-1.16 4.58"></path><rect width="14.74" height="16.64" x="-7.37" y="-8.32" fill="none" rx="0" ry="0" transform="translate(328.6 150.52)"></rect><path fill="#fff" d="M344.155 165.257q-3.16 0-4.88-1.18-1.71-1.18-1.71-3.3 0-1.51.96-2.58t2.66-1.42q-.63-.3-1.08-.88-.44-.59-.44-1.35 0-.88.49-1.55.49-.66 1.5-1.28-1.26-.51-2.05-1.73-.78-1.23-.78-2.85 0-1.73.72-2.95.72-1.23 2.08-1.87 1.36-.65 3.29-.65.43 0 .86.04t.83.1q.39.07.69.16h5.51v1.56l-2.96.37q.44.57.73 1.38.29.8.29 1.78 0 2.41-1.62 3.82-1.63 1.41-4.47 1.41-.68 0-1.38-.11-.72.39-1.09.88-.37.48-.37 1.11 0 .47.28.75.29.27.83.4.54.12 1.3.12h2.83q2.62 0 4.02 1.1 1.4 1.1 1.4 3.21 0 2.67-2.17 4.09t-6.27 1.42m.08-1.91q1.99 0 3.3-.4 1.31-.4 1.96-1.16.65-.75.65-1.79 0-.97-.44-1.46t-1.28-.66q-.85-.17-2.08-.17h-2.79q-1.08 0-1.89.34-.8.34-1.24 1-.43.66-.43 1.64 0 1.3 1.1 1.98 1.1.68 3.14.68m.63-12.83q1.74 0 2.62-.88.88-.88.88-2.56 0-1.8-.9-2.7-.89-.9-2.63-.9-1.67 0-2.57.93-.91.93-.91 2.71 0 1.64.91 2.52.91.88 2.6.88"></path><rect width="15.24" height="23.59" x="-7.62" y="-11.79" fill="none" rx="0" ry="0" transform="translate(345.69 153.96)"></rect><path fill="#fff" d="M355.965 141.997h2.43v16.05h-2.43zm1.24-6.01q.61 0 1.04.39.43.39.43 1.21 0 .8-.43 1.2-.43.39-1.04.39-.63 0-1.04-.39-.42-.4-.42-1.2 0-.82.42-1.21.41-.39 1.04-.39"></path><rect width="2.93" height="22.06" x="-1.47" y="-11.03" fill="none" rx="0" ry="0" transform="translate(357.71 147.52)"></rect><path fill="#fff" d="M369.965 158.337q-2.16 0-3.82-.89-1.66-.89-2.58-2.72-.92-1.84-.92-4.62 0-2.91.97-4.77.98-1.85 2.69-2.74 1.71-.9 3.9-.9 1.2 0 2.32.24 1.12.25 1.84.61l-.73 2.04q-.74-.29-1.7-.53-.96-.23-1.79-.23-1.67 0-2.78.71-1.1.72-1.65 2.11-.55 1.4-.55 3.43 0 1.95.53 3.33.54 1.37 1.6 2.1 1.06.72 2.66.72 1.27 0 2.3-.27 1.02-.27 1.86-.63v2.16q-.81.41-1.8.63-.98.22-2.35.22"></path><rect width="11.72" height="16.64" x="-5.86" y="-8.32" fill="none" rx="0" ry="0" transform="translate(369 150.52)"></rect><path fill="#fff" d="M377.905 141.997h2.43v16.05h-2.43zm1.25-6.01q.6 0 1.03.39.43.39.43 1.21 0 .8-.43 1.2-.43.39-1.03.39-.63 0-1.05-.39-.42-.4-.42-1.2 0-.82.42-1.21t1.05-.39"></path><rect width="2.93" height="22.06" x="-1.47" y="-11.03" fill="none" rx="0" ry="0" transform="translate(379.65 147.52)"></rect><path fill="#fff" d="M391.665 141.697q2.05 0 3.51.91 1.47.91 2.24 2.54.78 1.64.78 3.82v1.51h-11.09q.05 2.82 1.41 4.3 1.36 1.48 3.84 1.48 1.52 0 2.69-.27 1.17-.28 2.43-.83v2.14q-1.21.55-2.41.79-1.19.25-2.82.25-2.31 0-4.03-.94-1.72-.95-2.68-2.78-.95-1.83-.95-4.48 0-2.59.87-4.49.88-1.9 2.46-2.92 1.59-1.03 3.75-1.03m-.03 2q-1.95 0-3.11 1.27-1.15 1.27-1.37 3.56h8.49q-.01-1.44-.44-2.53-.44-1.09-1.32-1.7-.87-.6-2.25-.6"></path><rect width="13.61" height="16.64" x="-6.8" y="-8.32" fill="none" rx="0" ry="0" transform="translate(391.89 150.52)"></rect><path fill="#fff" d="M404.776 135.257v22.79h-2.45v-22.79z"></path><rect width="2.45" height="22.79" x="-1.23" y="-11.39" fill="none" rx="0" ry="0" transform="translate(404.05 147.15)"></rect><path fill="#fff" d="M420.286 153.657q0 1.53-.77 2.58t-2.2 1.58q-1.42.52-3.4.52-1.69 0-2.92-.26t-2.15-.75v-2.24q.98.48 2.34.88 1.37.4 2.79.4 2.08 0 3.01-.68.94-.67.94-1.83 0-.66-.37-1.16-.37-.51-1.25-.98-.88-.48-2.44-1.05-1.53-.59-2.65-1.17-1.12-.58-1.73-1.41-.61-.84-.61-2.17 0-2.03 1.65-3.13 1.65-1.09 4.33-1.09 1.45 0 2.71.29 1.27.28 2.37.77l-.82 1.95q-1-.43-2.13-.72-1.12-.29-2.3-.29-1.68 0-2.58.55-.9.56-.9 1.53 0 .74.42 1.23.41.48 1.34.9.92.43 2.43 1 1.51.56 2.61 1.15 1.09.59 1.69 1.44.59.84.59 2.16"></path><rect width="11.44" height="16.64" x="-5.72" y="-8.32" fill="none" rx="0" ry="0" transform="translate(415.06 150.52)"></rect><path fill="#fff" d="M437.705 158.337q-3.05 0-4.83-2.08-1.78-2.08-1.78-6.18 0-4.14 1.82-6.26 1.81-2.12 4.83-2.12 1.28 0 2.23.34t1.64.9q.69.56 1.16 1.28h.17q-.06-.45-.12-1.24-.05-.79-.05-1.29v-6.43h2.43v22.79h-1.97l-.36-2.28h-.1q-.46.71-1.15 1.3-.7.59-1.66.93-.96.34-2.26.34m.38-2.02q2.58 0 3.65-1.46 1.07-1.47 1.07-4.35v-.44q0-3.06-1.02-4.71-1.02-1.64-3.7-1.64-2.24 0-3.36 1.73-1.11 1.72-1.11 4.69 0 2.96 1.11 4.57 1.1 1.61 3.36 1.61"></path><rect width="14.11" height="23.08" x="-7.05" y="-11.54" fill="none" rx="0" ry="0" transform="translate(438.65 147.3)"></rect><path fill="#fff" d="M456.525 141.697q2.05 0 3.52.91 1.46.91 2.24 2.54.77 1.64.77 3.82v1.51h-11.08q.04 2.82 1.4 4.3 1.36 1.48 3.84 1.48 1.52 0 2.69-.27 1.18-.28 2.44-.83v2.14q-1.22.55-2.41.79-1.2.25-2.82.25-2.32 0-4.04-.94-1.72-.95-2.67-2.78-.95-1.83-.95-4.48 0-2.59.87-4.49.87-1.9 2.46-2.92 1.59-1.03 3.74-1.03m-.03 2q-1.95 0-3.1 1.27-1.16 1.27-1.38 3.56h8.5q-.02-1.44-.45-2.53-.43-1.09-1.31-1.7-.88-.6-2.26-.6"></path><rect width="13.6" height="16.64" x="-6.8" y="-8.32" fill="none" rx="0" ry="0" transform="translate(456.75 150.52)"></rect><path fill="#fff" d="M485.365 153.657q0 1.53-.77 2.58-.76 1.05-2.19 1.58-1.43.52-3.41.52-1.68 0-2.91-.26-1.23-.26-2.16-.75v-2.24q.98.48 2.35.88 1.36.4 2.78.4 2.08 0 3.02-.68.94-.67.94-1.83 0-.66-.38-1.16-.37-.51-1.25-.98-.88-.48-2.43-1.05-1.54-.59-2.66-1.17t-1.73-1.41q-.61-.84-.61-2.17 0-2.03 1.65-3.13 1.65-1.09 4.33-1.09 1.45 0 2.72.29 1.26.28 2.36.77l-.82 1.95q-.99-.43-2.12-.72-1.13-.29-2.3-.29-1.69 0-2.59.55-.9.56-.9 1.53 0 .74.42 1.23.42.48 1.34.9.92.43 2.43 1 1.51.56 2.61 1.15 1.1.59 1.69 1.44.59.84.59 2.16"></path><rect width="11.44" height="16.64" x="-5.72" y="-8.32" fill="none" rx="0" ry="0" transform="translate(480.14 150.52)"></rect><path fill="#fff" d="M489.275 141.997h2.44v16.05h-2.44zm1.25-6.01q.6 0 1.03.39.43.39.43 1.21 0 .8-.43 1.2-.43.39-1.03.39-.63 0-1.05-.39-.41-.4-.41-1.2 0-.82.41-1.21.42-.39 1.05-.39"></path><rect width="2.92" height="22.06" x="-1.46" y="-11.03" fill="none" rx="0" ry="0" transform="translate(491.02 147.52)"></rect><path fill="#fff" d="M514.285 141.697q2.65 0 4 1.39 1.35 1.38 1.35 4.44v10.52h-2.41v-10.4q0-1.95-.84-2.92-.84-.98-2.5-.98-2.32 0-3.38 1.35-1.05 1.35-1.05 3.97v8.98h-2.42v-10.4q0-1.3-.37-2.17-.38-.86-1.12-1.29-.74-.44-1.87-.44-1.59 0-2.56.66t-1.4 1.96q-.43 1.29-.43 3.18v8.5h-2.43v-16.05h1.96l.37 2.27h.13q.48-.84 1.21-1.41.74-.57 1.65-.86.9-.3 1.93-.3 1.83 0 3.07.68 1.24.69 1.79 2.08h.13q.8-1.39 2.17-2.08 1.38-.68 3.02-.68"></path><rect width="22.78" height="16.35" x="-11.39" y="-8.18" fill="none" rx="0" ry="0" transform="translate(508.75 150.37)"></rect><path fill="#fff" d="M535.435 141.997h2.45v16.05h-1.99l-.36-2.26h-.13q-.5.84-1.29 1.41t-1.78.86q-.98.28-2.1.28-1.9 0-3.19-.61-1.29-.62-1.94-1.91-.65-1.29-.65-3.31v-10.51h2.46v10.34q0 2 .9 2.99.91.99 2.77.99 1.79 0 2.85-.67 1.06-.68 1.53-1.99t.47-3.21z"></path><rect width="13.43" height="16.34" x="-6.71" y="-8.17" fill="none" rx="0" ry="0" transform="translate(531.67 150.67)"></rect><path fill="#fff" d="M545.475 135.257v22.79h-2.45v-22.79z"></path><rect width="2.45" height="22.79" x="-1.23" y="-11.39" fill="none" rx="0" ry="0" transform="translate(544.75 147.15)"></rect><path fill="#fff" d="M556.606 141.727q2.87 0 4.26 1.29 1.39 1.29 1.39 4.12v10.91h-1.77l-.47-2.37h-.12q-.67.88-1.4 1.47-.73.59-1.69.89-.96.3-2.35.3-1.47 0-2.6-.51-1.14-.51-1.79-1.55-.65-1.04-.65-2.64 0-2.4 1.9-3.69 1.91-1.29 5.8-1.41l2.77-.11v-.98q0-2.09-.89-2.92-.9-.83-2.52-.83-1.26 0-2.41.36-1.14.37-2.16.87l-.75-1.85q1.08-.56 2.49-.95 1.41-.4 2.96-.4m3.25 9.89v-1.48l-2.45.1q-3 .12-4.23.98-1.23.87-1.23 2.45 0 1.38.84 2.04.83.66 2.21.66 2.14 0 3.5-1.19 1.36-1.19 1.36-3.56"></path><rect width="12.84" height="16.61" x="-6.42" y="-8.3" fill="none" rx="0" ry="0" transform="translate(556.34 150.53)"></rect><path fill="#fff" d="M572.455 156.347q.6 0 1.23-.1t1.02-.25v1.89q-.42.19-1.17.32-.76.13-1.48.13-1.27 0-2.31-.44-1.04-.45-1.66-1.52-.63-1.07-.63-2.96v-9.52h-2.28v-1.19l2.3-.95.96-3.48h1.47v3.72h4.7v1.9h-4.7v9.45q0 1.51.7 2.25.69.75 1.85.75"></path><rect width="9.53" height="20.06" x="-4.76" y="-10.03" fill="none" rx="0" ry="0" transform="translate(570.44 148.8)"></rect><path fill="#fff" d="M577.966 141.997h2.43v16.05h-2.43zm1.24-6.01q.6 0 1.03.39.44.39.44 1.21 0 .8-.44 1.2-.43.39-1.03.39-.63 0-1.05-.39-.41-.4-.41-1.2 0-.82.41-1.21.42-.39 1.05-.39"></path><rect width="2.93" height="22.06" x="-1.47" y="-11.03" fill="none" rx="0" ry="0" transform="translate(579.71 147.52)"></rect><path fill="#fff" d="M599.375 149.987q0 1.98-.51 3.53-.51 1.56-1.48 2.63-.97 1.07-2.34 1.63-1.37.56-3.09.56-1.62 0-2.96-.56-1.34-.56-2.31-1.63-.97-1.07-1.51-2.63-.53-1.55-.53-3.53 0-2.63.89-4.49.89-1.85 2.56-2.82 1.66-.98 3.96-.98 2.2 0 3.84.98 1.65.99 2.57 2.84.91 1.85.91 4.47m-12.21 0q0 1.94.51 3.36t1.58 2.2q1.07.77 2.75.77 1.67 0 2.75-.77 1.08-.78 1.59-2.2.51-1.42.51-3.36 0-1.92-.51-3.31-.51-1.4-1.58-2.16-1.07-.77-2.77-.77-2.51 0-3.67 1.66-1.16 1.65-1.16 4.58"></path><rect width="14.73" height="16.64" x="-7.37" y="-8.32" fill="none" rx="0" ry="0" transform="translate(592.51 150.52)"></rect><path fill="#fff" d="M611.185 141.697q2.86 0 4.32 1.4 1.47 1.4 1.47 4.49v10.46h-2.41v-10.3q0-2-.91-3-.92-1-2.81-1-2.66 0-3.75 1.51-1.08 1.51-1.08 4.38v8.41h-2.43v-16.05h1.96l.37 2.31h.13q.51-.85 1.3-1.43t1.77-.88q.99-.3 2.07-.3"></path><rect width="13.39" height="16.35" x="-6.7" y="-8.18" fill="none" rx="0" ry="0" transform="translate(610.78 150.37)"></rect></svg></svg>